<svg xmlns="http://www.w3.org/2000/svg" version="1.1" xmlns:xlink="http://www.w3.org/1999/xlink" viewBox="0 0 9.228037179871531 8.545176556711864"><g transform="matrix(0.852278064819164,0,0,0.852278064819164,2.2502526350764387,3.9700295653451287)"><g transform="matrix(1,0,0,1,0,0)"><g clip-path="url(#SvgjsClipPath2779)"><path d=" M -0.9040781039174554 1.0614075411996584 C -1.1564530295933315 0.6242825547053097 -1.1564530295933315 0.08571744529469028 -0.904077868448275 -0.351407541199658 L 0.3194553132865927 -2.4706301647986324 C 0.5718311808391907 -2.907757505984785 1.0382391146080687 -3.1770377059982904 1.5430002684804807 -3.1770377059982904 L 3.9901137257862964 -3.1770377059982904 C 4.494889007809531 -3.1770377059982904 4.961306360345626 -2.9077410231421568 5.213658680980183 -2.4705948444215724 L 6.437132995419951 -0.35138399428161815 C 6.68946176913647 0.08574099221273013 6.68946176913647 0.6242590077872698 6.437132995419951 1.0613839942816181 L 5.213658680980183 3.180606617880593 C 4.961306360345626 3.6177316043749403 4.494889007809531 3.8870377059982903 3.9901137257862964 3.8870377059982903 L 1.5430002684804807 3.8870377059982903 C 1.0382391146080687 3.8870377059982903 0.5718311808391907 3.6177551512929815 0.3194553132865927 3.1806301647986324 L -0.9040781039174554 1.0614075411996584 Z" fill="#1192dc" transform="matrix(1,0,0,1,0,0)" fill-rule="nonzero"></path></g></g><g transform="matrix(1,0,0,1,0,0)"><path d=" M 0.099 0.7099999999999999 Q 0.088 0.7099999999999999 0.081 0.7029999999999998 Q 0.074 0.6959999999999998 0.074 0.6849999999999998 L 0.074 0.03499999999999981 Q 0.074 0.0239999999999998 0.081 0.016999999999999793 Q 0.088 0.009999999999999787 0.099 0.009999999999999787 L 0.364 0.009999999999999787 Q 0.489 0.009999999999999787 0.561 0.0674999999999999 Q 0.633 0.12499999999999989 0.633 0.23299999999999982 Q 0.633 0.3059999999999998 0.598 0.35499999999999987 Q 0.5630000000000001 0.40399999999999986 0.504 0.4279999999999998 L 0.645 0.6779999999999998 Q 0.648 0.6839999999999998 0.648 0.6889999999999998 Q 0.648 0.6969999999999998 0.642 0.7034999999999999 Q 0.636 0.7099999999999999 0.627 0.7099999999999999 L 0.516 0.7099999999999999 Q 0.498 0.7099999999999999 0.489 0.7004999999999999 Q 0.48 0.6909999999999998 0.47600000000000003 0.6829999999999998 L 0.354 0.45399999999999985 L 0.233 0.45399999999999985 L 0.233 0.6849999999999998 Q 0.233 0.6959999999999998 0.226 0.7029999999999998 Q 0.219 0.7099999999999999 0.20800000000000002 0.7099999999999999 L 0.099 0.7099999999999999 M 0.233 0.32699999999999985 L 0.361 0.32699999999999985 Q 0.41600000000000004 0.32699999999999985 0.4425 0.3019999999999998 Q 0.46900000000000003 0.27699999999999986 0.46900000000000003 0.23199999999999982 Q 0.46900000000000003 0.18699999999999983 0.443 0.1609999999999998 Q 0.417 0.1349999999999998 0.361 0.1349999999999998 L 0.233 0.1349999999999998 L 0.233 0.32699999999999985 M 1.0310161132812499 0.7199999999999999 Q 0.94001611328125 0.7199999999999999 0.8740161132812501 0.6899999999999998 Q 0.80801611328125 0.6599999999999998 0.77101611328125 0.5994999999999998 Q 0.73401611328125 0.5389999999999998 0.73101611328125 0.44699999999999984 Q 0.73001611328125 0.40399999999999986 0.73001611328125 0.3614999999999998 Q 0.73001611328125 0.31899999999999984 0.73101611328125 0.27499999999999986 Q 0.73401611328125 0.18499999999999983 0.77151611328125 0.12349999999999983 Q 0.80901611328125 0.06199999999999983 0.87551611328125 0.030999999999999805 Q 0.94201611328125 -1.1102230246251565e-16 1.0310161132812499 -1.1102230246251565e-16 Q 1.11901611328125 -1.1102230246251565e-16 1.18551611328125 0.030999999999999805 Q 1.25201611328125 0.06199999999999983 1.29001611328125 0.12349999999999983 Q 1.32801611328125 0.18499999999999983 1.33001611328125 0.27499999999999986 Q 1.33201611328125 0.31899999999999984 1.33201611328125 0.3614999999999998 Q 1.33201611328125 0.40399999999999986 1.33001611328125 0.44699999999999984 Q 1.3270161132812501 0.5389999999999998 1.29001611328125 0.5994999999999998 Q 1.25301611328125 0.6599999999999998 1.18701611328125 0.6899999999999998 Q 1.12101611328125 0.7199999999999999 1.0310161132812499 0.7199999999999999 M 1.0310161132812499 0.5909999999999999 Q 1.0890161132812501 0.5909999999999999 1.12651611328125 0.5554999999999999 Q 1.1640161132812499 0.5199999999999998 1.16601611328125 0.44199999999999984 Q 1.1680161132812499 0.39799999999999985 1.1680161132812499 0.3594999999999998 Q 1.1680161132812499 0.32099999999999984 1.16601611328125 0.27799999999999986 Q 1.16501611328125 0.22599999999999987 1.14701611328125 0.19299999999999984 Q 1.12901611328125 0.1599999999999998 1.09951611328125 0.14449999999999985 Q 1.07001611328125 0.1289999999999999 1.0310161132812499 0.1289999999999999 Q 0.99201611328125 0.1289999999999999 0.96201611328125 0.14449999999999985 Q 0.93201611328125 0.1599999999999998 0.91451611328125 0.19299999999999984 Q 0.89701611328125 0.22599999999999987 0.89501611328125 0.27799999999999986 Q 0.89401611328125 0.32099999999999984 0.89401611328125 0.3594999999999998 Q 0.89401611328125 0.39799999999999985 0.89501611328125 0.44199999999999984 Q 0.89801611328125 0.5199999999999998 0.93501611328125 0.5554999999999999 Q 0.9720161132812499 0.5909999999999999 1.0310161132812499 0.5909999999999999 M 1.7340190429687499 0.7199999999999999 Q 1.6430190429687501 0.7199999999999999 1.57701904296875 0.6899999999999998 Q 1.51101904296875 0.6599999999999998 1.47401904296875 0.5994999999999998 Q 1.43701904296875 0.5389999999999998 1.43401904296875 0.44699999999999984 Q 1.43301904296875 0.40399999999999986 1.43301904296875 0.3614999999999998 Q 1.43301904296875 0.31899999999999984 1.43401904296875 0.27499999999999986 Q 1.43701904296875 0.18499999999999983 1.47451904296875 0.12349999999999983 Q 1.51201904296875 0.06199999999999983 1.57851904296875 0.030999999999999805 Q 1.64501904296875 -1.1102230246251565e-16 1.7340190429687499 -1.1102230246251565e-16 Q 1.82201904296875 -1.1102230246251565e-16 1.88851904296875 0.030999999999999805 Q 1.95501904296875 0.06199999999999983 1.99301904296875 0.12349999999999983 Q 2.03101904296875 0.18499999999999983 2.03301904296875 0.27499999999999986 Q 2.03501904296875 0.31899999999999984 2.03501904296875 0.3614999999999998 Q 2.03501904296875 0.40399999999999986 2.03301904296875 0.44699999999999984 Q 2.03001904296875 0.5389999999999998 1.99301904296875 0.5994999999999998 Q 1.95601904296875 0.6599999999999998 1.89001904296875 0.6899999999999998 Q 1.82401904296875 0.7199999999999999 1.7340190429687499 0.7199999999999999 M 1.7340190429687499 0.5909999999999999 Q 1.7920190429687501 0.5909999999999999 1.82951904296875 0.5554999999999999 Q 1.8670190429687499 0.5199999999999998 1.86901904296875 0.44199999999999984 Q 1.8710190429687499 0.39799999999999985 1.8710190429687499 0.3594999999999998 Q 1.8710190429687499 0.32099999999999984 1.86901904296875 0.27799999999999986 Q 1.86801904296875 0.22599999999999987 1.85001904296875 0.19299999999999984 Q 1.83201904296875 0.1599999999999998 1.80251904296875 0.14449999999999985 Q 1.77301904296875 0.1289999999999999 1.7340190429687499 0.1289999999999999 Q 1.69501904296875 0.1289999999999999 1.66501904296875 0.14449999999999985 Q 1.6350190429687501 0.1599999999999998 1.61751904296875 0.19299999999999984 Q 1.60001904296875 0.22599999999999987 1.59801904296875 0.27799999999999986 Q 1.59701904296875 0.32099999999999984 1.59701904296875 0.3594999999999998 Q 1.59701904296875 0.39799999999999985 1.59801904296875 0.44199999999999984 Q 1.60101904296875 0.5199999999999998 1.63801904296875 0.5554999999999999 Q 1.67501904296875 0.5909999999999999 1.7340190429687499 0.5909999999999999 M 2.18402197265625 0.7099999999999999 Q 2.17402197265625 0.7099999999999999 2.16652197265625 0.7029999999999998 Q 2.15902197265625 0.6959999999999998 2.15902197265625 0.6849999999999998 L 2.15902197265625 0.03499999999999981 Q 2.15902197265625 0.0239999999999998 2.16652197265625 0.016999999999999793 Q 2.17402197265625 0.009999999999999787 2.18402197265625 0.009999999999999787 L 2.27702197265625 0.009999999999999787 Q 2.29202197265625 0.009999999999999787 2.29952197265625 0.017999999999999794 Q 2.30702197265625 0.0259999999999998 2.31002197265625 0.029999999999999805 L 2.49402197265625 0.36899999999999983 L 2.6800219726562498 0.029999999999999805 Q 2.68202197265625 0.0259999999999998 2.68952197265625 0.017999999999999794 Q 2.69702197265625 0.009999999999999787 2.71202197265625 0.009999999999999787 L 2.8050219726562498 0.009999999999999787 Q 2.81602197265625 0.009999999999999787 2.82302197265625 0.016999999999999793 Q 2.83002197265625 0.0239999999999998 2.83002197265625 0.03499999999999981 L 2.83002197265625 0.6849999999999998 Q 2.83002197265625 0.6959999999999998 2.82302197265625 0.7029999999999998 Q 2.81602197265625 0.7099999999999999 2.8050219726562498 0.7099999999999999 L 2.70302197265625 0.7099999999999999 Q 2.69302197265625 0.7099999999999999 2.68602197265625 0.7029999999999998 Q 2.67902197265625 0.6959999999999998 2.67902197265625 0.6849999999999998 L 2.67902197265625 0.28099999999999986 L 2.55202197265625 0.5189999999999999 Q 2.54702197265625 0.5279999999999998 2.53902197265625 0.5349999999999998 Q 2.53102197265625 0.5419999999999998 2.51802197265625 0.5419999999999998 L 2.47102197265625 0.5419999999999998 Q 2.45802197265625 0.5419999999999998 2.45002197265625 0.5349999999999998 Q 2.44202197265625 0.5279999999999998 2.43702197265625 0.5189999999999999 L 2.31002197265625 0.28099999999999986 L 2.31002197265625 0.6849999999999998 Q 2.31002197265625 0.6959999999999998 2.30302197265625 0.7029999999999998 Q 2.29602197265625 0.7099999999999999 2.28602197265625 0.7099999999999999 L 2.18402197265625 0.7099999999999999 M 3.00299169921875 0.7099999999999999 Q 2.99199169921875 0.7099999999999999 2.98499169921875 0.7029999999999998 Q 2.97799169921875 0.6959999999999998 2.97799169921875 0.6849999999999998 L 2.97799169921875 0.03499999999999981 Q 2.97799169921875 0.0239999999999998 2.98499169921875 0.016999999999999793 Q 2.99199169921875 0.009999999999999787 3.00299169921875 0.009999999999999787 L 3.10899169921875 0.009999999999999787 Q 3.11999169921875 0.009999999999999787 3.12699169921875 0.016999999999999793 Q 3.13399169921875 0.0239999999999998 3.13399169921875 0.03499999999999981 L 3.13399169921875 0.26299999999999985 L 3.33999169921875 0.028999999999999804 Q 3.34399169921875 0.0229999999999998 3.35349169921875 0.016499999999999848 Q 3.36299169921875 0.009999999999999787 3.37899169921875 0.009999999999999787 L 3.49999169921875 0.009999999999999787 Q 3.50899169921875 0.009999999999999787 3.5149916992187498 0.016499999999999848 Q 3.52099169921875 0.0229999999999998 3.52099169921875 0.030999999999999805 Q 3.52099169921875 0.03799999999999981 3.51699169921875 0.042999999999999816 L 3.25999169921875 0.34499999999999986 L 3.53599169921875 0.6769999999999998 Q 3.53999169921875 0.6809999999999998 3.53999169921875 0.6889999999999998 Q 3.53999169921875 0.6969999999999998 3.53399169921875 0.7034999999999999 Q 3.52799169921875 0.7099999999999999 3.51899169921875 0.7099999999999999 L 3.39399169921875 0.7099999999999999 Q 3.37599169921875 0.7099999999999999 3.36699169921875 0.7019999999999998 Q 3.35799169921875 0.6939999999999998 3.35499169921875 0.6909999999999998 L 3.13399169921875 0.43499999999999983 L 3.13399169921875 0.6849999999999998 Q 3.13399169921875 0.6959999999999998 3.12699169921875 0.7029999999999998 Q 3.11999169921875 0.7099999999999999 3.10899169921875 0.7099999999999999 L 3.00299169921875 0.7099999999999999 M 3.58396435546875 0.7099999999999999 Q 3.57496435546875 0.7099999999999999 3.56896435546875 0.7034999999999999 Q 3.56296435546875 0.6969999999999998 3.56296435546875 0.6889999999999998 Q 3.56296435546875 0.6839999999999998 3.56396435546875 0.6799999999999998 L 3.80196435546875 0.03699999999999981 Q 3.80496435546875 0.0259999999999998 3.81396435546875 0.017999999999999794 Q 3.8229643554687502 0.009999999999999787 3.8389643554687503 0.009999999999999787 L 3.96696435546875 0.009999999999999787 Q 3.98296435546875 0.009999999999999787 3.99196435546875 0.017999999999999794 Q 4.00096435546875 0.0259999999999998 4.00396435546875 0.03699999999999981 L 4.24196435546875 0.6799999999999998 Q 4.24296435546875 0.6839999999999998 4.24296435546875 0.6889999999999998 Q 4.24296435546875 0.6969999999999998 4.23696435546875 0.7034999999999999 Q 4.23096435546875 0.7099999999999999 4.22196435546875 0.7099999999999999 L 4.11796435546875 0.7099999999999999 Q 4.10296435546875 0.7099999999999999 4.09596435546875 0.7029999999999998 Q 4.08896435546875 0.6959999999999998 4.08696435546875 0.6899999999999998 L 4.04396435546875 0.5779999999999998 L 3.76196435546875 0.5779999999999998 L 3.71896435546875 0.6899999999999998 Q 3.71696435546875 0.6959999999999998 3.70996435546875 0.7029999999999998 Q 3.70296435546875 0.7099999999999999 3.68796435546875 0.7099999999999999 L 3.58396435546875 0.7099999999999999 M 3.79896435546875 0.44899999999999984 L 4.00596435546875 0.44899999999999984 L 3.90296435546875 0.1609999999999998 L 3.79896435546875 0.44899999999999984 M 4.35394384765625 0.7099999999999999 Q 4.34294384765625 0.7099999999999999 4.33594384765625 0.7029999999999998 Q 4.32894384765625 0.6959999999999998 4.32894384765625 0.6849999999999998 L 4.32894384765625 0.03499999999999981 Q 4.32894384765625 0.0239999999999998 4.33594384765625 0.016999999999999793 Q 4.34294384765625 0.009999999999999787 4.35394384765625 0.009999999999999787 L 4.61894384765625 0.009999999999999787 Q 4.74394384765625 0.009999999999999787 4.81594384765625 0.0674999999999999 Q 4.88794384765625 0.12499999999999989 4.88794384765625 0.23299999999999982 Q 4.88794384765625 0.3059999999999998 4.85294384765625 0.35499999999999987 Q 4.81794384765625 0.40399999999999986 4.75894384765625 0.4279999999999998 L 4.89994384765625 0.6779999999999998 Q 4.90294384765625 0.6839999999999998 4.90294384765625 0.6889999999999998 Q 4.90294384765625 0.6969999999999998 4.89694384765625 0.7034999999999999 Q 4.89094384765625 0.7099999999999999 4.88194384765625 0.7099999999999999 L 4.77094384765625 0.7099999999999999 Q 4.75294384765625 0.7099999999999999 4.74394384765625 0.7004999999999999 Q 4.73494384765625 0.6909999999999998 4.73094384765625 0.6829999999999998 L 4.60894384765625 0.45399999999999985 L 4.48794384765625 0.45399999999999985 L 4.48794384765625 0.6849999999999998 Q 4.48794384765625 0.6959999999999998 4.48094384765625 0.7029999999999998 Q 4.47394384765625 0.7099999999999999 4.46294384765625 0.7099999999999999 L 4.35394384765625 0.7099999999999999 M 4.48794384765625 0.32699999999999985 L 4.61594384765625 0.32699999999999985 Q 4.67094384765625 0.32699999999999985 4.69744384765625 0.3019999999999998 Q 4.72394384765625 0.27699999999999986 4.72394384765625 0.23199999999999982 Q 4.72394384765625 0.18699999999999983 4.69794384765625 0.1609999999999998 Q 4.67194384765625 0.1349999999999998 4.61594384765625 0.1349999999999998 L 4.48794384765625 0.1349999999999998 L 4.48794384765625 0.32699999999999985 M 5.182931640625 0.7099999999999999 Q 5.171931640625 0.7099999999999999 5.164931640625 0.7029999999999998 Q 5.157931640625 0.6959999999999998 5.157931640625 0.6849999999999998 L 5.157931640625 0.1489999999999998 L 4.975931640625 0.1489999999999998 Q 4.965931640625 0.1489999999999998 4.958931640625 0.1419999999999998 Q 4.951931640625 0.1349999999999998 4.951931640625 0.12499999999999989 L 4.951931640625 0.03499999999999981 Q 4.951931640625 0.0239999999999998 4.958931640625 0.016999999999999793 Q 4.965931640625 0.009999999999999787 4.975931640625 0.009999999999999787 L 5.499931640625 0.009999999999999787 Q 5.5109316406249995 0.009999999999999787 5.517931640625 0.016999999999999793 Q 5.524931640625 0.0239999999999998 5.524931640625 0.03499999999999981 L 5.524931640625 0.12499999999999989 Q 5.524931640625 0.1349999999999998 5.517931640625 0.1419999999999998 Q 5.5109316406249995 0.1489999999999998 5.499931640625 0.1489999999999998 L 5.318931640625 0.1489999999999998 L 5.318931640625 0.6849999999999998 Q 5.318931640625 0.6959999999999998 5.311931640625 0.7029999999999998 Q 5.304931640625 0.7099999999999999 5.293931640625 0.7099999999999999 L 5.182931640625 0.7099999999999999" fill="#ffffff" fill-rule="nonzero"></path></g><g transform="matrix(1,0,0,1,0,0)"></g></g><defs><clipPath id="SvgjsClipPath2779"><path d=" M -1.1 -3.1770377059982904 h 7.74693603515625 v 7.064075411996581 h -7.74693603515625 Z"></path></clipPath></defs></svg>